<svg width="2600" height="1398" viewBox="0 0 2600 1398" fill="none" xmlns="http://www.w3.org/2000/svg">
<rect x="233" y="253" width="42" height="884" rx="21" transform="rotate(-90 233 253)" fill="#309048"/>
<path d="M839.827 896.5V625.5C839.827 604 882.825 604.5 882.825 625.5C882.825 694.334 883.827 842.9 883.827 896.5C883.827 950.1 841.494 967.834 820.327 970C747.827 971.334 592.651 970 551.327 970C509.826 970 491.327 932.5 491.327 906C491.327 870.475 491.326 821.31 491.326 773.607L491.326 713L415.825 680C395.659 673.834 359.125 647 374.325 589C389.525 531 407.825 462.334 415.325 436.001C434.407 369.001 495.766 359.157 506.825 354.501C535.325 342.501 550.825 380.501 524.825 393.501L480.825 414C474.992 417.667 461.925 430.401 456.325 452.001C450.725 473.601 426.992 560 415.825 600.5C411.825 610.334 408.125 631.6 425.325 638C442.525 644.4 476.492 659 491.326 665.5L491.325 623.001C491.325 603 532.826 601.5 532.826 623.001C532.826 693.742 532.826 820.52 532.827 877.327L532.827 906C532.827 913.6 540.326 925.956 551.327 926C633.327 926.334 801.927 926.8 820.327 926C838.727 925.2 840.994 906 839.827 896.5Z" fill="black"/>
<path d="M1298.65 296.8C1313.05 296.8 1325.85 299.333 1337.05 304.4C1348.52 309.2 1359.45 316.533 1369.85 326.4L1343.05 358C1336.39 351.867 1329.72 347.333 1323.05 344.4C1316.65 341.2 1309.72 339.6 1302.25 339.6C1287.05 339.6 1275.19 347.467 1266.65 363.2C1258.12 378.667 1253.85 404.667 1253.85 441.2C1253.85 476.933 1258.12 502.667 1266.65 518.4C1275.19 534.133 1287.19 542 1302.65 542C1310.92 542 1318.12 540.4 1324.25 537.2C1330.65 533.733 1337.85 528.533 1345.85 521.6L1372.25 552.4C1351.19 575.067 1326.65 586.4 1298.65 586.4C1266.92 586.4 1241.72 574.267 1223.05 550C1204.39 525.467 1195.05 489.2 1195.05 441.2C1195.05 409.467 1199.45 382.8 1208.25 361.2C1217.05 339.6 1229.19 323.467 1244.65 312.8C1260.39 302.133 1278.39 296.8 1298.65 296.8ZM1438.93 586.4C1423.47 586.4 1411.2 581.733 1402.13 572.4C1393.33 563.067 1388.93 550.4 1388.93 534.4V283.6L1443.33 277.6V532C1443.33 539.2 1446.4 542.8 1452.53 542.8C1455.2 542.8 1457.87 542.267 1460.53 541.2L1470.93 578.8C1461.33 583.867 1450.67 586.4 1438.93 586.4ZM1645.76 469.2C1645.76 472.133 1645.36 479.2 1644.56 490.4H1536.16C1537.23 511.2 1540.83 525.6 1546.96 533.6C1553.36 541.6 1562.16 545.6 1573.36 545.6C1581.09 545.6 1588.29 544.267 1594.96 541.6C1601.63 538.667 1608.83 534.267 1616.56 528.4L1638.96 558.4C1619.76 577.067 1596.69 586.4 1569.76 586.4C1541.23 586.4 1519.36 576.667 1504.16 557.2C1488.96 537.733 1481.36 510.533 1481.36 475.6C1481.36 440.667 1488.56 412.933 1502.96 392.4C1517.36 371.867 1538.03 361.6 1564.96 361.6C1590.29 361.6 1610.03 370.8 1624.16 389.2C1638.56 407.333 1645.76 434 1645.76 469.2ZM1592.96 453.6C1592.96 434.4 1590.83 420.533 1586.56 412C1582.29 403.2 1575.23 398.8 1565.36 398.8C1556.29 398.8 1549.36 403.067 1544.56 411.6C1540.03 420.133 1537.23 435.2 1536.16 456.8H1592.96V453.6ZM1813.36 526.4C1813.36 533.333 1814.16 538.4 1815.76 541.6C1817.63 544.8 1820.7 547.467 1824.96 549.6L1813.76 585.6C1802.56 584.267 1793.5 581.467 1786.56 577.2C1779.63 572.667 1774.43 565.733 1770.96 556.4C1758.7 576.4 1741.36 586.4 1718.96 586.4C1701.36 586.4 1687.36 580.4 1676.96 568.4C1666.56 556.4 1661.36 540.533 1661.36 520.8C1661.36 497.6 1668.43 480 1682.56 468C1696.96 455.733 1717.9 449.6 1745.36 449.6H1760.16V436.8C1760.16 423.733 1758.03 414.667 1753.76 409.6C1749.5 404.267 1742.16 401.6 1731.76 401.6C1719.76 401.6 1704.43 405.067 1685.76 412L1673.36 377.2C1684.3 372.133 1695.76 368.267 1707.76 365.6C1719.76 362.933 1731.1 361.6 1741.76 361.6C1789.5 361.6 1813.36 385.733 1813.36 434V526.4ZM1734.56 547.2C1745.76 547.2 1754.3 539.467 1760.16 524V481.2H1750.56C1738.3 481.2 1729.23 484.133 1723.36 490C1717.76 495.6 1714.96 504.4 1714.96 516.4C1714.96 526.533 1716.7 534.267 1720.16 539.6C1723.63 544.667 1728.43 547.2 1734.56 547.2ZM1953 362.4C1959.13 362.4 1964.6 363.333 1969.4 365.2L1960.6 417.6C1955.8 416 1950.86 415.2 1945.8 415.2C1935.66 415.2 1927.8 419.467 1922.2 428C1916.6 436.267 1912.33 448.667 1909.4 465.2V580H1855V368H1902.6L1906.6 404C1916.46 376.267 1931.93 362.4 1953 362.4Z" fill="#309048"/>
<path d="M1018.3 930V653.2H1155.9L1149.9 694.4H1075.1V775.2H1140.3V816.4H1075.1V930H1018.3ZM1295.4 876.4C1295.4 883.333 1296.2 888.4 1297.8 891.6C1299.66 894.8 1302.73 897.467 1307 899.6L1295.8 935.6C1284.6 934.267 1275.53 931.467 1268.6 927.2C1261.66 922.667 1256.46 915.733 1253 906.4C1240.73 926.4 1223.4 936.4 1201 936.4C1183.4 936.4 1169.4 930.4 1159 918.4C1148.6 906.4 1143.4 890.533 1143.4 870.8C1143.4 847.6 1150.46 830 1164.6 818C1179 805.733 1199.93 799.6 1227.4 799.6H1242.2V786.8C1242.2 773.733 1240.06 764.667 1235.8 759.6C1231.53 754.267 1224.2 751.6 1213.8 751.6C1201.8 751.6 1186.46 755.067 1167.8 762L1155.4 727.2C1166.33 722.133 1177.8 718.267 1189.8 715.6C1201.8 712.933 1213.13 711.6 1223.8 711.6C1271.53 711.6 1295.4 735.733 1295.4 784V876.4ZM1216.6 897.2C1227.8 897.2 1236.33 889.467 1242.2 874V831.2H1232.6C1220.33 831.2 1211.26 834.133 1205.4 840C1199.8 845.6 1197 854.4 1197 866.4C1197 876.533 1198.73 884.267 1202.2 889.6C1205.66 894.667 1210.46 897.2 1216.6 897.2ZM1397.46 711.6C1410.52 711.6 1422.52 713.867 1433.46 718.4C1444.66 722.667 1454.39 728.933 1462.66 737.2L1442.26 766.8C1427.86 756.4 1414.39 751.2 1401.86 751.2C1394.66 751.2 1389.06 753.067 1385.06 756.8C1381.06 760.267 1379.06 765.333 1379.06 772C1379.06 776.533 1379.99 780.4 1381.86 783.6C1383.99 786.533 1387.59 789.6 1392.66 792.8C1397.72 795.733 1405.46 799.333 1415.86 803.6C1433.99 810.8 1447.32 819.333 1455.86 829.2C1464.39 838.8 1468.66 851.867 1468.66 868.4C1468.66 889.467 1461.32 906.133 1446.66 918.4C1431.99 930.4 1413.19 936.4 1390.26 936.4C1375.59 936.4 1361.99 933.733 1349.46 928.4C1336.92 923.067 1326.12 915.6 1317.06 906L1342.66 877.6C1358.66 890.667 1373.72 897.2 1387.86 897.2C1395.86 897.2 1402.12 895.067 1406.66 890.8C1411.19 886.533 1413.46 880.667 1413.46 873.2C1413.46 864.933 1411.06 858.533 1406.26 854C1401.46 849.2 1391.59 843.867 1376.66 838C1358.26 830.533 1345.06 822 1337.06 812.4C1329.32 802.8 1325.46 790.533 1325.46 775.6C1325.46 763.6 1328.26 752.8 1333.86 743.2C1339.72 733.333 1348.12 725.6 1359.06 720C1369.99 714.4 1382.79 711.6 1397.46 711.6ZM1599.61 711.6C1614.81 711.6 1626.81 717.067 1635.61 728C1644.41 738.933 1648.81 753.6 1648.81 772V930H1594.41V778C1594.41 769.2 1593.21 762.933 1590.81 759.2C1588.41 755.467 1584.81 753.6 1580.01 753.6C1570.41 753.6 1560.54 763.2 1550.41 782.4V930H1496.01V633.6L1550.41 628V742.4C1557.34 732 1564.68 724.267 1572.41 719.2C1580.14 714.133 1589.21 711.6 1599.61 711.6ZM1742.99 718V930H1688.59V718H1742.99ZM1715.79 610C1725.12 610 1732.72 613.067 1738.59 619.2C1744.46 625.333 1747.39 633.067 1747.39 642.4C1747.39 651.467 1744.46 659.067 1738.59 665.2C1732.72 671.067 1725.12 674 1715.79 674C1706.19 674 1698.46 671.067 1692.59 665.2C1686.72 659.067 1683.79 651.467 1683.79 642.4C1683.79 633.067 1686.72 625.333 1692.59 619.2C1698.46 613.067 1706.19 610 1715.79 610ZM1862.29 711.6C1889.49 711.6 1910.69 721.067 1925.89 740C1941.09 758.933 1948.69 786.933 1948.69 824C1948.69 859.467 1940.96 887.067 1925.49 906.8C1910.29 926.533 1889.23 936.4 1862.29 936.4C1835.36 936.4 1814.16 926.8 1798.69 907.6C1783.49 888.4 1775.89 860.533 1775.89 824C1775.89 787.733 1783.49 760 1798.69 740.8C1813.89 721.333 1835.09 711.6 1862.29 711.6ZM1862.29 752.8C1851.89 752.8 1844.29 758.267 1839.49 769.2C1834.69 779.867 1832.29 798.133 1832.29 824C1832.29 850.133 1834.69 868.667 1839.49 879.6C1844.29 890.267 1851.89 895.6 1862.29 895.6C1872.69 895.6 1880.29 890.133 1885.09 879.2C1889.89 868.267 1892.29 849.867 1892.29 824C1892.29 797.867 1889.89 779.467 1885.09 768.8C1880.29 758.133 1872.69 752.8 1862.29 752.8ZM2084.77 711.6C2099.97 711.6 2111.97 717.067 2120.77 728C2129.57 738.933 2133.97 753.6 2133.97 772V930H2079.57V778C2079.57 769.2 2078.37 762.933 2075.97 759.2C2073.57 755.467 2069.97 753.6 2065.17 753.6C2055.57 753.6 2045.7 763.2 2035.57 782.4V930H1981.17V718H2028.77L2032.77 744.8C2039.7 733.867 2047.3 725.6 2055.57 720C2063.83 714.4 2073.57 711.6 2084.77 711.6Z" fill="black"/>
<rect x="233" y="211" width="42" height="892" rx="21" fill="#309048"/>
<rect x="2298" y="211" width="42" height="892" rx="21" fill="#309048"/>
<rect x="1132" y="253" width="42" height="1203" rx="21" transform="rotate(-90 1132 253)" fill="#309048"/>
<rect x="233" y="1103" width="42" height="2102" rx="21" transform="rotate(-90 233 1103)" fill="#309048"/>
<path d="M942.145 538.617C964.156 615.653 968.697 631.545 941.826 641C914.826 650.5 933.826 690.5 958.826 679.5C973.826 675 981.826 666.681 986.826 661C997.826 648.5 1010.33 636.5 1000.83 595.5C990.659 558.667 968.126 475.7 959.326 438.5C950.526 401.3 916.992 377 901.326 369.5L801.5 331.5C797 330 766.811 316 757.5 342.5C752.3 357.3 752.667 356.5 750.5 362.5C747.884 377.667 724.5 409.5 686.825 406.5C643.785 403.073 624 381.5 624 316.5C624 306 621 258 630 239C630 230 654.8 192.7 692 197.5C738.5 203.5 750 230 753.59 260C756.387 283.381 789.59 290 795.59 260C800.227 236.811 783 197.5 755.5 178.5C750.5 173 702.5 148 658.5 162.5C619.871 175.23 607 191.5 592.5 218.5C576.389 248.5 583.5 292 583.5 310C583.5 326.574 577.826 446 686.825 446C756.425 446 785.492 395 791.326 369.5C813.659 377.667 863.826 397.1 885.826 409.5C907.826 421.9 915.048 441 917.826 453.5C918.826 458 921.826 467.5 941.826 537.5L942.145 538.617Z" fill="black"/>
<rect x="675" y="253" width="42" height="884" rx="21" transform="rotate(-90 675 253)" fill="#309048"/>
</svg>
